
<?xml version="1.0" encoding="utf-8"?>
<!-- Generator: Adobe Illustrator 16.0.0, SVG Export Plug-In . SVG Version: 6.00 Build 0)  -->
<!DOCTYPE svg PUBLIC "-//W3C//DTD SVG 1.1//EN" "http://www.w3.org/Graphics/SVG/1.1/DTD/svg11.dtd">
<svg version="1.1" xmlns="http://www.w3.org/2000/svg" xmlns:xlink="http://www.w3.org/1999/xlink" x="0px" y="0px" width="612px"
	 height="160px" viewBox="0 0 612 792" enable-background="new 0 0 612 200" xml:space="preserve">
<g id="Layer_1">
	<g>
		<path d="M549.739,522.592c-0.561-0.488-1.945,0.082-2.91-0.082c-11.572-1.98-23.137-4.01-34.703-6.021
			c-9.683-1.684-19.373-3.322-29.032-5.129c-0.691-0.129-1.79-1.672-1.624-2.242c1.707-5.859,2.692-12.221,5.745-17.324
			c3.705-6.193,9.051-11.457,13.995-16.838c2.651-2.887,2.615-8.598-1.012-9.947c-6.308-2.346-12.852-4.057-19.301-6.018
			c-3.028-0.92-6.067-1.801-9.102-2.699c1.271-0.902,2.389-0.822,3.395-1.121c11.852-3.533,23.692-7.104,35.514-10.736
			c0.865-0.266,2.163-1.035,2.222-1.668c0.2-2.16,0.74-5.037-0.373-6.361c-1.149-1.367-4.077-1.236-6.919-1.932
			c-2.608-8.229-2.383-17.52-0.846-26.871c2.529-15.376,7.625-29.498,19.376-40.495c1.979-1.852,2.584-4.366,1.233-7.057
			c-1.385-2.761-3.621-2.395-5.996-1.819c-0.715,0.172-1.504,0.27-2.222,0.16c-6.855-1.037-13.72-2.032-20.549-3.225
			c-6.63-1.158-13.2-2.651-19.833-3.787c-10.456-1.791-20.943-3.396-31.415-5.098c-6.391-1.037-12.786-2.055-19.163-3.171
			c-9.664-1.692-19.314-3.464-29.271-5.256c10.419-16.559,17.881-33.925,23.786-51.986c5.619-17.185,8.87-35.02,16.263-51.779
			c6.103-13.835-2.471-28.264-17.344-31.95c-6.872-0.016-13.75-0.01-20.623-0.025c-4.383-0.009-8.95-0.427-13.312-0.04
			c-4.827,0.429-7.024,2.476-11.122,5.174c-1.976,1.302-3.915,2.95-4.851,5.067c4.911-0.092,10.152-0.1,15.103-0.513
			c6.484-0.542,12.994-1.074,19.5-0.546c9.397,0.763,30.271,7.637,21.05,21.519c-1.735,2.612-5.249,4.133-8.117,5.886
			c-13.486,8.24-28.231,13.013-43.661,16.13c-26.008,5.256-52.179,6.244-78.519,3.697c-18.73-1.812-37.318-4.822-55.181-10.729
			c-8.236-2.723-15.666-7.844-23.55-11.694c-5.088-2.485-5.536-7.032-4.952-11.54c1.913-14.75,31.442-9.758,41.887-9.91
			c1.638-0.024,7.243-4.934,9.244-5.806c3.592-1.565,7.425-2.587,11.088-3.814c1.688-0.565-5.398-3.101-6.011-3.171
			c-1.987-0.225-4.062-0.049-6.06-0.061c-5.599-0.033-11.199-0.016-16.798-0.027c-7.776-0.014-15.552-0.047-23.328-0.065
			c-9.296,1.151-17.42,5.663-21.173,15.269c-2.51,6.425-1.579,12.773,0.907,18.982c2.494,6.228,5.565,12.271,7.521,18.66
			c4.324,14.135,7.785,28.537,12.234,42.629c2.536,8.035,6.322,15.676,9.562,23.531c-6.454,0.764-12.799,1.572-19.156,2.252
			c-15.959,1.711-31.922,3.386-47.888,5.03c-14.726,1.517-29.468,2.882-44.181,4.51c-5.251,0.581-10.953,0.654-15.551,2.845
			c-10.273,4.896-16.215,14.065-18.987,24.82c-4.661,18.087-0.149,37.24,7.985,53.744c2.602,5.279,11.438,8.002,16.38,10.578
			c-14.381,3.033-21.575,46.695-11.943,69.104c-3.047,0.35-5.967,0.635-8.873,1.025c-9.521,1.281-19.007,3.285-28.564,3.707
			c-9.231,0.408-17.074,3.828-24.45,8.559c-9.007,5.779-12.934,14.938-14.011,25.18c-1.153,10.961,1.32,21.299,7.217,30.707
			c2.072,3.307,3.778,7.008,6.467,9.721c3.226,3.254,7.25,5.75,11.057,8.387c11.595,8.035,23.095,16.223,34.928,23.895
			c13.307,8.627,26.669,17.232,40.493,24.979c16.791,9.408,33.99,18.107,51.2,26.738c13.782,6.912,27.698,13.598,41.819,19.781
			c17.524,7.672,35.293,14.793,53.02,21.996c5.656,2.297,10.697,4.475,17.741,1.533c17.563-7.334,35.863-12.879,53.763-19.428
			c18.53-6.779,36.96-13.836,55.39-20.883c12.381-4.734,24.736-9.543,37.012-14.539c12.86-5.236,25.605-10.754,38.413-16.119
			c14.081-5.9,28.193-11.723,42.257-17.666c5.787-2.443,11.455-5.17,17.224-7.662c6.058-2.617,12.223-4.994,18.216-7.75
			c1.228-0.564,2.683-2.381,2.624-3.549c-0.072-1.432-1.307-3.406-2.594-4.074c-5.871-3.037-8.694-8.496-10.674-14.096
			c-3.611-10.215-4.217-20.914-2.479-31.625c0.436-2.686,0.796-5.713,4.442-6.746c3.875-1.1,7.715-2.512,11.319-4.293
			c1.519-0.752,3.451-2.928,3.298-4.234C553.209,525.5,551.232,523.898,549.739,522.592z M504.763,375.079
			c-2.446,6.443-5.272,12.393-6.965,18.648c-3.718,13.742-6.669,27.681-2.364,41.882c0.744,2.457-0.229,3.211-2.041,3.715
			c-9.985,2.781-20.017,5.404-29.979,8.266c-8.565,2.461-17.043,5.223-25.589,7.752c-13.462,3.984-26.96,7.848-40.423,11.832
			c-9.581,2.836-19.105,5.865-28.699,8.66c-9.452,2.754-18.974,5.262-28.436,7.982c-8.803,2.529-17.627,5.012-26.323,7.877
			c-4.298,1.416-5.402-2.072-6.686-4.16c-8.304-13.521-9.749-28.031-4.815-43.041c1.33-4.049,3.316-8.021,5.742-11.518
			c1.492-2.15,4.165-4.09,6.687-4.82c19.401-5.625,38.897-10.922,58.359-16.336c10.663-2.967,21.337-5.9,31.969-8.975
			c7.768-2.246,15.438-4.832,23.221-7.025c8.835-2.488,17.762-4.649,26.621-7.057c8.299-2.256,16.552-4.685,24.843-6.969
			C488.213,379.499,496.564,377.288,504.763,375.079z M221.314,254.01c7.365,2.396,14.246,5.141,21.376,6.845
			c13.151,3.144,26.351,6.337,39.707,8.318c23.846,3.538,47.854,2.743,71.769,0.323c21.001-2.126,41.346-7.334,61.27-14.232
			c0.566-0.197,1.563-0.315,1.803-0.02c0.369,0.455,0.503,1.383,0.311,1.971c-5.301,16.186-10.467,32.42-16.1,48.49
			c-2.156,6.15-4.656,12.439-8.345,17.727c-4.56,6.534-9.948,12.76-15.994,17.93c-12.238,10.467-27.486,14.322-42.998,16.356
			c-7.478,0.98-15.24,0.12-22.851-0.317c-11.693-0.674-23.002-3.402-33.85-7.763c-11.802-4.743-21.003-12.813-28.536-22.995
			c-8.724-11.789-13.099-25.505-17.568-39.148C227.743,276.612,224.734,265.548,221.314,254.01z M238.951,335.53
			c6.429,10.051,14.813,17.985,25.9,22.645c11.367,4.779,23.33,7.612,35.614,7.974c15.191,0.447,30.46,0.761,45.601-0.262
			c15.272-1.032,29.724-5.462,41.3-16.505c0.823-0.787,2.631-1.028,3.864-0.823c15.975,2.657,31.93,5.438,47.889,8.196
			c9.23,1.594,18.447,3.277,27.692,4.782c8.708,1.418,17.446,2.647,26.167,3.985c0.807,0.124,1.584,0.438,2.865,0.805
			c-12.995,3.551-25.399,6.928-37.798,10.331c-15.09,4.142-30.174,8.304-45.26,12.462c-11.458,3.156-22.927,6.277-34.369,9.494
			c-10.476,2.945-20.906,6.049-31.385,8.982c-10.821,3.031-21.67,5.969-32.531,8.852c-1.002,0.268-2.26,0.068-3.272-0.279
			c-8.751-3-17.454-6.137-26.208-9.129c-9.961-3.402-20.024-6.52-29.924-10.091c-8.851-3.193-17.531-6.858-26.303-10.277
			c-7.532-2.936-15.161-5.639-22.614-8.764c-10.583-4.438-21.031-9.195-31.562-13.762c-7.082-3.07-14.251-5.945-21.298-9.094
			c-6.963-3.109-13.821-6.449-21.71-10.151C166.673,341.217,236.726,332.049,238.951,335.53z M62.693,509.336
			c10.125-1.463,19.464-2.803,28.799-4.166c4.264-0.623,8.507-1.492,12.792-1.807c1.096-0.08,2.44,1.398,3.458,2.383
			c9.854,9.531,19.471,19.32,29.541,28.619c10.293,9.502,20.952,18.613,31.577,27.748c7.372,6.34,14.958,12.43,22.342,18.838
			C146.579,560.787,103.989,536.959,62.693,509.336z M197.152,499.08c-9.65-7.248-19.092-14.787-28.412-22.457
			c-10.034-8.254-19.856-16.768-29.701-25.252c-5.294-4.563-10.439-9.297-15.84-14.123c5.103-1.082,9.74-1.396,14.625,1.055
			c12.033,6.037,24.186,11.869,36.504,17.299c11.89,5.242,23.995,10.012,36.102,14.742c11.192,4.373,22.497,8.461,33.78,12.598
			c7.404,2.715,14.829,5.381,22.296,7.92c11.923,4.053,23.948,7.813,35.805,12.049c4.638,1.658,8.726,0.426,12.977-0.82
			c8.374-2.455,16.735-4.955,25.106-7.42c14.746-4.342,29.503-8.65,44.243-13.012c11.658-3.449,23.284-7.01,34.953-10.428
			c10.849-3.176,21.671-6.492,32.65-9.139c2.562-0.617,5.73,1.17,8.595,1.943c5.208,1.406,10.403,2.863,15.59,4.348
			c0.99,0.283,1.915,0.797,3.434,1.443c-7.776,1.688-14.875,3.205-21.963,4.77c-15.692,3.461-31.363,7.021-47.074,10.396
			c-12.945,2.781-25.946,5.297-38.901,8.037c-9.323,1.973-18.587,4.236-27.92,6.16c-13.136,2.709-26.306,5.254-39.471,7.814
			c-17.756,3.453-35.513,6.906-53.288,10.256c-7.165,1.352-14.375,2.475-21.584,3.578c-0.954,0.146-2.21-0.166-3.004-0.723
			C216.771,513.17,206.808,506.33,197.152,499.08z M235.553,597.861c-4.546-5.979-9.492-11.896-12.672-18.602
			c-3.252-6.857-3.655-14.574-2.258-22.393c1.575-8.813,4.97-16.623,10.455-23.551c1.13-1.426,2.948-2.846,4.66-3.178
			c8.371-1.625,16.838-2.742,25.224-4.295c13.924-2.58,27.817-5.324,41.713-8.057c11.943-2.348,23.885-4.709,35.802-7.186
			c12.142-2.521,24.249-5.205,36.378-7.791c11.744-2.504,23.509-4.92,35.243-7.471c11.486-2.498,22.939-5.148,34.419-7.676
			c11.34-2.496,22.692-4.934,34.046-7.363c1.26-0.27,2.564-0.324,4.448-0.549c-6.533,8.707-10.667,17.859-11.572,28.123
			c-0.917,10.389,1.012,20.168,8.68,28.688c-6.055,1.756-11.613,3.318-17.143,4.982c-12.906,3.885-25.808,7.783-38.691,11.74
			c-9.474,2.91-18.904,5.961-28.375,8.881c-15.983,4.928-31.957,9.891-47.985,14.668c-12.682,3.781-25.372,7.568-38.183,10.871
			c-14.515,3.74-29.123,7.152-43.778,10.301c-8.02,1.723-16.193,2.904-24.36,3.646C239.68,601.828,236.938,599.684,235.553,597.861z
			 M257.876,609.578c0.069-0.256,0.14-0.512,0.21-0.768c7.94-1.621,15.917-3.082,23.812-4.902
			c10.668-2.461,21.298-5.098,31.896-7.842c10.006-2.592,19.978-5.322,29.913-8.174c9.229-2.648,18.396-5.521,27.582-8.322
			c10.517-3.209,21.033-6.42,31.533-9.682c8.366-2.598,16.694-5.316,25.063-7.9c9.489-2.932,19.029-5.699,28.504-8.676
			c10.084-3.168,20.121-6.486,30.169-9.771c1.82-0.596,3.891-0.967,5.324-2.102c3.642-2.883,2.848-6.043-0.691-9.008
			c-3.251-2.723-5.64-6.477-8.408-9.775c0.319-0.336,0.639-0.672,0.959-1.006c14.854,2.455,29.707,4.912,45.657,7.549
			c-6.467,2.418-11.949,4.438-17.411,6.516c-11.028,4.193-22.032,8.451-33.069,12.623c-9.964,3.766-19.963,7.436-29.936,11.18
			c-9.68,3.633-19.323,7.361-29.022,10.941c-9.475,3.498-19.022,6.799-28.497,10.299c-10.321,3.811-20.54,7.908-30.906,11.59
			c-10.118,3.592-20.382,6.771-30.553,10.215c-10.581,3.584-21.116,7.305-31.697,10.887c-4.938,1.672-9.895,3.324-14.934,4.631
			c-1.478,0.383-3.357-0.203-4.901-0.764C271.577,614.82,264.736,612.172,257.876,609.578z M534.981,591.326
			c-7.694,3.311-15.191,6.539-22.691,9.762c-16.441,7.064-32.866,14.168-49.331,21.176c-12.572,5.35-25.141,10.715-37.813,15.82
			c-14.441,5.816-28.994,11.359-43.502,17.008c-12.183,4.746-24.335,9.572-36.569,14.18c-11.854,4.463-23.784,8.725-35.704,13.01
			c-8.337,2.998-16.742,5.805-25.051,8.875c-2.106,0.779-2.862-0.006-3.028-1.756c-0.871-9.156-2.49-18.346-2.224-27.477
			c0.262-8.955,2.322-17.881,3.878-26.771c1.304-7.451,7.754-9.742,13.607-11.945c8.604-3.238,17.497-5.699,26.238-8.576
			c9.498-3.125,18.988-6.277,28.438-9.547c9.076-3.143,18.084-6.482,27.144-9.672c7.331-2.58,14.735-4.957,22.034-7.621
			c9.794-3.578,19.52-7.344,29.272-11.035c6.852-2.594,13.691-5.221,20.55-7.797c10.545-3.963,21.101-7.896,31.652-11.84
			c14.014-5.238,28.028-10.479,42.248-15.793C521.939,559.291,522.776,576.34,534.981,591.326z"/>
	</g>
</g>
<g id="Layer_2">
	<path d="M254.026,213.472c-0.771,0.918-1.437,1.942-1.963,3.095c1.012-2.215,13.57,0.73,15.483,1.021
		c4.783,0.729,9.427,2.061,13.831,4.074c7.603,3.476,14.036,8.911,21.251,13.054c21.061-4.35,41.521-7.05,59.101-1.92
		c4.321-8.106,4.748-15.292,8.143-20.896c2.096-3.46,5.32-6.318,11.298-8.414c0.537-0.847,0.688-1.681,0.548-2.478
		c-0.51-2.897-5.101-5.271-11.078-5.742c-5.46-0.39-7.25,0.57-11.72,4.38c-0.453,0.426-0.893,0.864-1.33,1.303
		c-1.476,1.481-4.613,1.563-3.328-0.005c2.792-3.407,8.759-7.845,23.367-15.098c6.03-3.3,6.601-4.98-0.93-4.17
		c-21.494,4.45-17.38,3.407-34.705,19.239c-1.6,1.462-3.171,2.96-4.715,4.491l-1.89-2.24l4.61-4.256l2.799-2.584
		c6.961-6.18,13.41-12.83,19.11-15.23c-0.75-14.58,3.45-32.93,14.37-47.03c2.85-3.96,0.96-4.47-2.34-3.359
		c-7.561,2.67-12.391,6.93-18.27,12.72c-4.681-13.62-9.78-27.18-11.371-41.31c-0.149-4.65-0.81-7.56-3.299-4.05
		c0,0-9.99,4.561-20.25,31.98c-0.36,1.02-2.971-4.771-9.9-10.62c-6.63-5.58-13.561-9.39-20.4-15.84c-2.13-1.53-0.689,1.77-0.33,3.66
		c5.971,15.66,10.891,32.04,9.87,52.47c7.62,8.34,13.09,18.72,18.04,28.77l-1.569,4.351c-9.121-27.36-27.721-40.2-47.551-51.12
		c-38.159-13.56-24.42-5.4-20.069-1.14c17.91,11.94,32.67,36.75,48.479,57.21c-12.06-9.9-34.47-21.96-54-17.58
		c-1.89,2.22-0.12,2.279,2.79,2.819c9.266,1.719,18.549,9.043,26.098,17.725c0.883,1.017,1.749,2.048,2.579,3.096
		c-0.642-0.811-11.679,3.576-12.95,4.154C258.869,209.351,256.071,211.039,254.026,213.472z"/>
</g>
</svg>

